<svg width="89" height="71" viewBox="0 0 89 71" fill="none" xmlns="http://www.w3.org/2000/svg">
<path d="M69.8736 35.07L87.4879 21.14C89.214 19.775 89.214 17.57 87.4879 16.205L68.2803 1.01499C66.5543 -0.350009 63.7661 -0.350009 62.0401 1.01499L44.4257 14.945L26.8114 1.01499C25.9262 0.349991 24.8198 -8.44896e-06 23.6691 -8.44896e-06C22.5627 -8.44896e-06 21.412 0.349991 20.5711 1.01499L1.36352 16.205C-0.362507 17.57 -0.362507 19.775 1.36352 21.14L18.9779 35.07L1.36352 49C-0.362507 50.365 -0.362507 52.57 1.36352 53.935L20.5711 69.125C22.2972 70.49 25.0854 70.49 26.8114 69.125L44.4257 55.195L62.0401 69.125C62.9252 69.825 64.0317 70.14 65.1823 70.14C66.333 70.14 67.4395 69.79 68.3246 69.125L87.5322 53.935C89.2582 52.57 89.2582 50.365 87.5322 49L69.8736 35.07ZM44.5143 24.5C46.9484 24.5 48.94 26.075 48.94 28C48.94 29.925 46.9484 31.5 44.5143 31.5C42.0801 31.5 40.0885 29.925 40.0885 28C40.0885 26.075 42.0801 24.5 44.5143 24.5ZM23.6691 31.36L7.60378 18.69L23.6691 5.98499L39.6902 18.655L23.6691 31.36ZM35.6628 38.5C33.2287 38.5 31.2371 36.925 31.2371 35C31.2371 33.075 33.2287 31.5 35.6628 31.5C38.097 31.5 40.0885 33.075 40.0885 35C40.0885 36.925 38.097 38.5 35.6628 38.5ZM44.5143 45.5C42.0801 45.5 40.0885 43.925 40.0885 42C40.0885 40.075 42.0801 38.5 44.5143 38.5C46.9484 38.5 48.94 40.075 48.94 42C48.94 43.925 46.9484 45.5 44.5143 45.5ZM53.3657 31.5C55.7998 31.5 57.7914 33.075 57.7914 35C57.7914 36.925 55.7998 38.5 53.3657 38.5C50.9315 38.5 48.94 36.925 48.94 35C48.94 33.075 50.9315 31.5 53.3657 31.5ZM65.1381 64.19L49.0727 51.52L65.1381 38.815L81.1592 51.485L65.1381 64.19Z" fill="black"/>
</svg>
